<svg height="512pt" viewBox="0 0 512 512" width="512pt" xmlns="http://www.w3.org/2000/svg"><path d="m0 496.992188c.00390625-22.65625 13.476562-43.027344 34.324219-51.894532l129.730469-55.195312c1.855468-.792969 3.855468-1.199219 5.875-1.199219h172.144531c2.019531 0 4.015625.40625 5.871093 1.199219l129.730469 55.195312c20.847657 8.871094 34.320313 29.238282 34.324219 51.894532v15.003906l-512-.007813s0-14.132812 0-14.996093zm0 0" fill="#ff5c42"/><path d="m477.675781 445.097656-129.730469-55.195312c-1.855468-.789063-3.855468-1.199219-5.871093-1.199219h-86.074219v123.289063l256 .003906v-15.003906c-.003906-22.65625-13.476562-43.023438-34.324219-51.894532zm0 0" fill="#d9311c"/><path d="m256 511.992188c-30.140625 0-54.386719-9.335938-72.066406-27.742188-29.554688-30.769531-29.140625-75.902344-29.003906-80.78125v-74.472656c0-8.285156 6.714843-15 15-15h172.144531c8.28125 0 15 6.714844 15 15v74.472656c.136719 4.878906.546875 50.011719-29.007813 80.78125-17.679687 18.40625-41.925781 27.742188-72.066406 27.742188zm-86.070312-108.289063h.007812zm0 0" fill="#ffd2b4"/><path d="m357.070312 328.996094c0-8.285156-6.714843-15-15-15h-86.070312v197.996094c30.140625 0 54.386719-9.335938 72.066406-27.742188 29.554688-30.769531 29.144532-75.902344 29.003906-80.78125zm0 0" fill="#ffbea0"/><path d="m256 338.398438c-41.558594 0-80.335938-15.722657-109.183594-44.277344-32.238281-31.910156-49.277344-77.023438-49.277344-130.472656v-5.1875c0-103.664063 54.796876-158.460938 158.460938-158.460938s158.460938 54.796875 158.460938 158.460938v5.1875c0 53.445312-17.039063 98.5625-49.277344 130.472656-28.847656 28.554687-67.621094 44.277344-109.183594 44.277344zm0 0" fill="#a85a16"/><path d="m365.183594 294.121094c32.238281-31.910156 49.277344-77.023438 49.277344-130.472656v-5.1875c0-103.664063-54.796876-158.460938-158.460938-158.460938v338.398438c41.5625 0 80.335938-15.722657 109.183594-44.277344zm0 0" fill="#6e2e07"/><path d="m143.953125 303.160156h-40c-24.8125 0-45-20.1875-45-45v-64.511718c0-24.8125 20.1875-45 45-45h40c8.285156 0 15 6.714843 15 15v124.511718c0 8.28125-6.714844 15-15 15zm0 0" fill="#878477"/><path d="m408.046875 303.160156h-40c-8.285156 0-15-6.71875-15-15v-124.511718c0-8.285157 6.714844-15 15-15h40c24.8125 0 45 20.1875 45 45v64.511718c0 24.8125-20.1875 45-45 45zm0 0" fill="#4c4a40"/><path d="m256 393.828125c-65.058594 0-112.046875-47.90625-112.046875-107v-107.089844c0-14.175781 2.238281-28.292969 6.925781-41.671875 26.0625-74.410156 75.871094-24.070312 105.121094-24.070312 28.386719 0 73.839844-47.402344 101.949219 17.785156 6.796875 15.769531 10.097656 32.824219 10.097656 50v105.046875c0 59.09375-46.988281 107-112.046875 107zm0 0" fill="#ffe9d6"/><path d="m368.046875 286.828125v-105.046875c0-17.171875-3.300781-34.230469-10.097656-50-28.109375-65.1875-73.5625-17.785156-101.949219-17.785156v279.832031c65.058594 0 112.046875-47.90625 112.046875-107zm0 0" fill="#ffd2b4"/><path d="m294 338.398438h-23c-8.28125 0-15-6.714844-15-15 0-8.285157 6.71875-15 15-15h23c10.894531 0 21.449219-3.195313 30.511719-9.238282l51.167969-34.121094c6.894531-4.597656 16.207031-2.734374 20.800781 4.15625 4.597656 6.894532 2.734375 16.207032-4.15625 20.804688l-51.167969 34.117188c-14.007812 9.34375-30.316406 14.28125-47.15625 14.28125zm0 0" fill="#878477"/></svg>